<?xml version="1.0" encoding="UTF-8" standalone="no"?>
<!-- Created with Inkscape (http://www.inkscape.org/) -->

<svg
   width="52.031151mm"
   height="51.868629mm"
   viewBox="0 0 52.031151 51.868629"
   version="1.1"
   id="svg5"
   inkscape:version="1.1.2 (b8e25be833, 2022-02-05)"
   sodipodi:docname="Convertio Icon.svg"
   xmlns:inkscape="http://www.inkscape.org/namespaces/inkscape"
   xmlns:sodipodi="http://sodipodi.sourceforge.net/DTD/sodipodi-0.dtd"
   xmlns="http://www.w3.org/2000/svg"
   xmlns:svg="http://www.w3.org/2000/svg">
  <sodipodi:namedview
     id="namedview7"
     pagecolor="#ffffff"
     bordercolor="#666666"
     borderopacity="1.0"
     inkscape:pageshadow="2"
     inkscape:pageopacity="0.0"
     inkscape:pagecheckerboard="0"
     inkscape:document-units="mm"
     showgrid="false"
     inkscape:zoom="5.1241863"
     inkscape:cx="89.77035"
     inkscape:cy="69.084139"
     inkscape:window-width="1920"
     inkscape:window-height="1017"
     inkscape:window-x="-8"
     inkscape:window-y="-8"
     inkscape:window-maximized="1"
     inkscape:current-layer="layer1" />
  <defs
     id="defs2" />
  <g
     inkscape:groupmode="layer"
     id="layer2"
     inkscape:label="Layer 2">
    <ellipse
       style="fill:#ffffff;fill-opacity:1;stroke:#6c6c6c;stroke-width:0.264583"
       id="path1332"
       cx="26.204363"
       cy="25.817108"
       rx="22.125261"
       ry="25.094229" />
  </g>
  <g
     inkscape:label="Layer 1"
     inkscape:groupmode="layer"
     id="layer1"
     transform="translate(-79.319679,-105.49578)">
    <g
       id="g836"
       transform="matrix(1.7289543,0,0,1.7289543,79.319679,105.49578)">
      <path
         fill="#ff3333"
         d="M 15.047,30 C 6.737,30 0,23.284 0,15 0,6.716 6.737,0 15.047,0 c 8.31,0 15.047,6.716 15.047,15 0,8.284 -6.736,15 -15.047,15 z M 24.3,15.111 C 24.328,12.758 22.968,10.245 21.179,8.444 18.058,5.356 13.621,5.521 10.255,7.111 c 2.898,0.242 4.58,1.214 6.242,2.889 1.696,1.673 2.229,2.95 2.23,5.111 h -2.899 l 5.574,6.222 5.573,-6.222 z M 5.796,14.89 c -0.029,2.353 1.332,4.866 3.12,6.667 3.122,3.088 7.558,2.923 10.924,1.333 -2.898,-0.242 -4.579,-1.214 -6.242,-2.889 -1.695,-1.673 -2.229,-2.95 -2.229,-5.111 h 2.898 L 8.694,8.667 3.121,14.889 h 2.675 z"
         id="path824" />
    </g>
  </g>
</svg>
