<?xml version="1.0" standalone="no"?>
<!DOCTYPE svg PUBLIC "-//W3C//DTD SVG 20010904//EN"
 "http://www.w3.org/TR/2001/REC-SVG-20010904/DTD/svg10.dtd">
<svg version="1.0" xmlns="http://www.w3.org/2000/svg"
 width="2143.000000pt" height="2129.000000pt" viewBox="0 0 2143.000000 2129.000000"
 preserveAspectRatio="xMidYMid meet">

<g transform="translate(0.000000,2129.000000) scale(0.100000,-0.100000)"
fill="#000000" stroke="none">
<path d="M10210 17489 l0 -3800 -87 93 c-1257 1349 -2859 2163 -4633 2353 -80
9 -270 19 -422 22 l-278 6 0 -4100 0 -4100 198 -6 c1386 -44 2773 -567 4047
-1524 614 -462 1255 -1080 1643 -1583 36 -47 71 -91 77 -98 10 -11 30 10 101
100 275 350 680 773 1062 1110 945 836 1987 1432 3045 1742 534 157 1039 239
1615 262 l172 7 0 4093 0 4093 -37 7 c-52 10 -425 -3 -623 -21 -1351 -125
-2689 -667 -3785 -1533 -295 -234 -628 -541 -870 -802 l-150 -162 -3 3821 -2
3821 -535 0 -535 0 0 -3801z"/>
</g>
</svg>
