<?xml version="1.0" standalone="no"?>
<!DOCTYPE svg PUBLIC "-//W3C//DTD SVG 20010904//EN"
 "http://www.w3.org/TR/2001/REC-SVG-20010904/DTD/svg10.dtd">
<svg version="1.0" xmlns="http://www.w3.org/2000/svg"
 width="260.000000pt" height="260.000000pt" viewBox="0 0 260.000000 260.000000"
 preserveAspectRatio="xMidYMid meet">

<g transform="translate(0.000000,260.000000) scale(0.100000,-0.100000)"
fill="#000000" stroke="none">
<path d="M0 1300 l0 -1300 1300 0 1300 0 0 1300 0 1300 -1300 0 -1300 0 0
-1300z m1435 945 c90 -11 130 -22 223 -62 18 -8 37 -11 42 -8 6 3 10 2 10 -2
0 -5 34 -29 76 -52 78 -45 156 -118 219 -207 19 -27 35 -55 35 -63 0 -8 6 -11
16 -7 8 3 12 2 9 -3 -7 -13 25 -92 35 -86 5 3 6 -3 3 -13 -2 -10 3 -46 11 -79
24 -91 21 -296 -4 -393 -23 -86 -40 -124 -83 -195 -45 -72 -99 -134 -156 -179
-27 -22 -47 -44 -44 -49 4 -6 1 -7 -6 -3 -7 5 -20 1 -29 -7 -26 -22 -113 -64
-152 -72 -19 -4 -40 -12 -47 -17 -7 -5 -70 -18 -140 -29 -120 -18 -132 -18
-222 -3 -52 9 -102 20 -110 25 -9 4 -42 20 -74 34 -32 14 -63 30 -70 35 -7 6
-25 22 -42 35 l-30 25 -5 -298 -5 -297 -190 0 -190 0 -3 645 c-3 569 -1 654
13 720 10 41 23 89 31 107 8 17 14 34 14 39 0 13 92 158 132 205 33 40 36 48
23 59 -8 7 -15 17 -15 22 0 6 8 0 18 -12 l19 -23 30 27 c17 15 48 36 69 47 22
11 46 29 55 39 9 11 19 17 22 14 3 -3 25 3 49 14 84 38 165 59 263 68 33 4 62
8 64 11 3 2 23 1 45 -1 23 -3 64 -8 91 -11z m555 -257 c0 -6 -6 -5 -15 2 -8 7
-15 14 -15 16 0 2 7 1 15 -2 8 -4 15 -11 15 -16z m-1029 -1211 c-10 -9 -11 -8
-5 6 3 10 9 15 12 12 3 -3 0 -11 -7 -18z"/>
<path d="M1220 1893 c-93 -30 -213 -103 -197 -120 4 -3 -3 -11 -16 -17 -43
-21 -95 -149 -104 -253 -16 -202 131 -402 328 -444 57 -12 196 -6 226 10 10 5
33 15 52 22 49 18 91 57 85 77 -5 13 -4 14 4 3 14 -20 63 37 104 119 55 112
51 282 -10 404 -9 20 -16 25 -22 17 -5 -9 -9 -8 -13 4 -4 9 -3 13 3 10 6 -3
10 -2 10 3 0 5 -25 32 -55 61 -57 54 -156 106 -187 98 -10 -3 -18 -1 -18 4 0
9 -163 11 -190 2z m325 -71 c-3 -3 -11 0 -18 7 -9 10 -8 11 6 5 10 -3 15 -9
12 -12z m85 -616 c0 -3 -4 -8 -10 -11 -5 -3 -10 -1 -10 4 0 6 5 11 10 11 6 0
10 -2 10 -4z m-60 -56 c0 -5 -2 -10 -4 -10 -3 0 -8 5 -11 10 -3 6 -1 10 4 10
6 0 11 -4 11 -10z"/>
</g>
</svg>
