<?xml version="1.0" standalone="no"?>
<!DOCTYPE svg PUBLIC "-//W3C//DTD SVG 20010904//EN"
 "http://www.w3.org/TR/2001/REC-SVG-20010904/DTD/svg10.dtd">
<svg version="1.0" xmlns="http://www.w3.org/2000/svg"
 width="1548.000000pt" height="1548.000000pt" viewBox="0 0 1548.000000 1548.000000"
 preserveAspectRatio="xMidYMid meet">

<g transform="translate(0.000000,1548.000000) scale(0.100000,-0.100000)"
fill="#000000" stroke="none">
<path d="M5402 10077 l-4943 -4943 4 -1224 c4 -1349 2 -1301 67 -1557 75 -290
224 -584 417 -823 79 -98 257 -270 358 -347 323 -244 691 -389 1097 -433 66
-7 1763 -10 5217 -10 5601 0 5209 -4 5466 57 159 37 291 85 450 163 577 281
1001 811 1148 1435 61 257 57 -135 57 5466 0 3454 -3 5151 -10 5217 -44 407
-188 774 -433 1097 -77 101 -249 279 -347 358 -239 193 -533 342 -823 417
-256 65 -208 63 -1557 67 l-1225 4 -4943 -4944z m5044 570 c212 -70 377 -246
430 -457 13 -50 15 -94 11 -190 -5 -115 -10 -141 -65 -330 -100 -341 -136
-462 -317 -1050 -96 -311 -267 -873 -380 -1250 -407 -1348 -443 -1459 -558
-1700 -117 -245 -261 -401 -452 -490 -107 -50 -189 -70 -316 -77 -314 -17
-576 77 -731 261 -122 145 -154 231 -493 1310 -146 464 -243 752 -251 744 -18
-19 -127 -335 -222 -648 -300 -980 -405 -1234 -595 -1437 -67 -72 -192 -159
-282 -196 -132 -55 -329 -73 -474 -42 -329 69 -585 312 -749 711 -65 157 -620
1959 -679 2202 -24 101 -21 269 7 357 28 90 47 126 105 202 117 157 321 253
534 253 198 0 371 -80 493 -227 95 -115 146 -245 257 -668 34 -126 82 -292
108 -368 47 -137 47 -138 76 -135 26 3 32 11 62 85 18 45 119 351 224 681 243
762 282 877 336 982 124 240 332 404 584 461 139 31 332 29 466 -6 236 -61
437 -238 561 -491 41 -85 57 -135 298 -899 102 -324 203 -635 224 -690 36 -94
40 -100 68 -103 l31 -3 56 173 c31 95 185 598 342 1118 415 1369 442 1458 480
1537 90 191 238 330 413 388 69 22 90 25 197 22 97 -3 136 -9 201 -30z"/>
</g>
</svg>
